<?xml version="1.0" encoding="UTF-8"?>
<svg width="70px" height="80px" viewBox="0 0 70 80" version="1.1" xmlns="http://www.w3.org/2000/svg" xmlns:xlink="http://www.w3.org/1999/xlink">
    <!-- Generator: sketchtool 64 (101010) - https://sketch.com -->
    <title>1B449B08-35D3-4EC6-AF69-E64029C00305</title>
    <desc>Created with sketchtool.</desc>
    <g id="Designs" stroke="none" stroke-width="1" fill="none" fill-rule="evenodd">
        <g id="Ailstair-LP-1440" transform="translate(-930.000000, -1073.000000)" fill-rule="nonzero">
            <g id="greed" transform="translate(930.000000, 1073.000000)">
                <path d="M69.3228155,48.3231582 L64.2957612,31.8092692 C64.2358287,23.429278 60.9985427,15.5363175 55.1646447,9.5600738 C49.2822743,3.53429886 41.4309574,0.140708665 33.0566634,0.00430255782 C27.0991837,-0.09319734 21.2790687,1.46805102 16.2165505,4.51773533 C15.4821833,4.96007862 15.2422983,5.91929636 15.6807195,6.66023308 C16.1191407,7.40116981 17.0701632,7.64335705 17.8042206,7.20070127 C22.3721018,4.44914165 27.6320722,3.04289312 33.006797,3.12867428 C48.5522433,3.38195527 61.1994018,16.3544417 61.1994018,32.0464565 C61.1994018,32.2019251 61.2223218,32.3566124 61.2675422,32.505206 L66.3580908,49.2283135 L59.4118017,49.2283135 C58.5566403,49.2283135 57.8631574,49.927844 57.8631574,50.7908119 L57.8631574,59.4184591 C57.8631574,63.529861 54.5479746,66.8747013 50.472872,66.8747013 L38.6451012,66.8747013 C34.9631994,66.8747013 31.5013599,65.427984 28.897934,62.8011118 C28.2930335,62.1911124 27.3127417,62.1911124 26.7076864,62.8011118 C26.1029408,63.4112674 26.1029408,64.4006413 26.7076864,65.010797 C29.7890239,68.1196999 33.8515825,69.8784481 38.190729,69.9932917 L35.9156156,78.0068771 C35.6800668,78.8365637 36.1556555,79.7015628 36.9778307,79.9392188 C37.1204609,79.9804688 37.2638653,80 37.4051017,80 C38.0786071,80 38.6985294,79.5531255 38.8930391,78.8673449 L41.410825,69.9998542 L50.472872,69.9998542 C56.2556647,69.9998542 60.960446,65.2531404 60.960446,59.4186153 L60.960446,52.3534665 L66.3710995,52.3534665 C67.3609929,52.3534665 68.2660206,51.8928419 68.8543506,51.0895615 C69.4426806,50.2861249 69.613496,49.2778447 69.3228155,48.3231582 Z" id="XMLID_105_" fill="#636363"></path>
                <path d="M3.52490931,30.9200345 C3.61454776,25.4528662 5.15262726,20.1555084 7.97256714,15.6008537 C8.42825474,14.8649557 8.22083198,13.8861322 7.50953714,13.4146827 C6.7982423,12.9432332 5.8519907,13.1578306 5.39645607,13.8935703 C2.27027699,18.9429384 0.56546386,24.8119228 0.466188515,30.8662269 C0.365383503,37.0053571 1.9075931,43.8563301 4.69724559,49.6626444 C7.3795155,55.2450242 8.09647011,61.5811852 6.71594625,67.5038189 L4.25899618,78.0461512 C4.06105736,78.8958365 4.56630615,79.7507442 5.387584,79.9555296 C5.50796874,79.9855986 5.62865942,80 5.74736153,80 C6.43785291,80 7.06425127,79.5130413 7.2332794,78.788063 L9.69038243,68.2457307 C11.2390166,61.6009674 10.4388482,54.5010551 7.43718392,48.2536767 C4.85786055,42.8865273 3.43205857,36.5687242 3.52490931,30.9200345 L3.52490931,30.9200345 Z" id="XMLID_115_" fill="#636363"></path>
                <path d="M13.0474621,7.55984876 C12.4763159,6.95263347 11.5267553,6.92909799 10.9269618,7.50746334 C10.3271683,8.0858287 10.3040705,9.04698719 10.8752167,9.65420249 L10.8767166,9.65572091 C11.1712888,9.96897051 11.5662016,10.1265823 11.9618644,10.1265823 C12.3335294,10.1265823 12.7059443,9.98734336 12.9963169,9.70734711 C13.5962604,9.12898176 13.6187583,8.16706405 13.0474621,7.55984876 L13.0474621,7.55984876 Z" id="XMLID_739_" fill="#636363"></path>
                <path d="M53.4615385,30.8860759 C53.4615385,19.4392911 44.2653962,10.1265823 32.9615385,10.1265823 C21.6576808,10.1265823 12.4615385,19.4392911 12.4615385,30.8860759 C12.4615385,42.3328608 21.6576808,51.6455696 32.9615385,51.6455696 C44.2653962,51.6455696 53.4615385,42.3328608 53.4615385,30.8860759 Z M15.6153846,30.8860759 C15.6153846,21.200335 23.3968692,13.3203505 32.9615385,13.3203505 C42.5262077,13.3203505 50.3076923,21.200335 50.3076923,30.8860759 C50.3076923,40.5718169 42.5262077,48.4518014 32.9615385,48.4518014 C23.3968692,48.4518014 15.6153846,40.5718169 15.6153846,30.8860759 Z" id="XMLID_742_" fill="#17A5DC"></path>
                <path d="M34.5122229,42.0070886 L34.5122229,40.6913862 C37.235908,39.9971798 38.9814579,37.6901273 39.3679603,35.4147414 C39.8732552,32.4396152 38.3028659,29.8534044 35.367373,28.8262372 C35.0858428,28.7277017 34.7993434,28.6254769 34.5122229,28.5201776 L34.5122229,23.0613729 C35.1993555,23.3056364 35.6444001,23.6186134 35.6655187,23.6336781 C36.348614,24.1386533 37.3166558,24.0038395 37.8321994,23.3300781 C38.3500723,22.653396 38.2157514,21.6892546 37.5321903,21.1765934 C37.4548588,21.1186403 36.2697296,20.2471931 34.5122229,19.8694993 L34.5122229,18.752405 C34.5122229,17.9034011 33.8168601,17.2151899 32.9593807,17.2151899 C32.1019012,17.2151899 31.4065385,17.9034011 31.4065385,18.752405 L31.4065385,19.8608909 C31.2358812,19.8980915 31.0638262,19.9400575 30.8899079,19.9917079 C28.9460601,20.5698545 27.4936868,22.2128301 27.0995755,24.2794622 C26.7382291,26.1736187 27.3564156,28.0045957 28.7128232,29.0577418 C29.3998006,29.5911555 30.2495158,30.0787601 31.4066938,30.5911139 L31.4066938,37.7858958 C30.4981258,37.6990431 29.8816475,37.4498605 28.8646912,36.7913176 C28.1468122,36.32631 27.1846712,36.5258405 26.7150917,37.2361876 C26.2456676,37.9466885 26.4466053,38.8993007 27.1644843,39.3641546 C28.8216774,40.4372845 29.965501,40.7757793 31.4066938,40.8697031 L31.4066938,42.0070886 C31.4066938,42.8560926 32.1020565,43.5443038 32.959536,43.5443038 C33.8170154,43.5443038 34.5122229,42.8560926 34.5122229,42.0070886 L34.5122229,42.0070886 Z M36.3051344,34.9051546 C36.1427071,35.8616098 35.5352353,36.8706379 34.5122229,37.4169641 L34.5122229,31.7929087 C36.5250169,32.5991781 36.396131,34.3692814 36.3051344,34.9051546 L36.3051344,34.9051546 Z M30.629341,26.63878 C30.1957875,26.3021299 30.0082041,25.6000837 30.1512209,24.8499227 C30.2718767,24.2175124 30.6638141,23.4702721 31.4065385,23.0884279 L31.4065385,27.1506727 C31.1187969,26.9849609 30.8557454,26.8144837 30.629341,26.63878 L30.629341,26.63878 Z" id="XMLID_745_" fill="#17A5DC"></path>
            </g>
        </g>
    </g>
</svg>