<?xml version="1.0" encoding="UTF-8"?>
<svg width="80px" height="80px" viewBox="0 0 80 80" version="1.1" xmlns="http://www.w3.org/2000/svg" xmlns:xlink="http://www.w3.org/1999/xlink">
    <!-- Generator: sketchtool 64 (101010) - https://sketch.com -->
    <title>44E6BE83-FECF-42FD-A84A-AD5D80133CD5</title>
    <desc>Created with sketchtool.</desc>
    <g id="Designs" stroke="none" stroke-width="1" fill="none" fill-rule="evenodd">
        <g id="Ailstair-LP-1440" transform="translate(-530.000000, -1072.000000)" fill-rule="nonzero">
            <g id="stock-market" transform="translate(530.000000, 1072.000000)">
                <path d="M78.4375,70.7410826 L69.2776563,70.7410826 L69.2776563,37.9407077 C69.2776563,37.0720059 68.578125,36.3678274 67.7151563,36.3678274 L56.4635938,36.3678274 C55.600625,36.3678274 54.9010938,37.0720059 54.9010938,37.9407077 L54.9010938,70.7412399 L49.5876562,70.7412399 L49.5876562,49.3469214 C49.5876562,48.4782196 48.888125,47.7740411 48.0251562,47.7740411 L36.7735938,47.7740411 C35.910625,47.7740411 35.2110938,48.4782196 35.2110938,49.3469214 L35.2110938,70.7412399 L30.4184375,70.7412399 L30.4184375,30.5936264 C30.4184375,29.7249246 29.7189062,29.020746 28.8559375,29.020746 L17.6045313,29.020746 C16.7415625,29.020746 16.0420313,29.7249246 16.0420313,30.5936264 L16.0420313,70.7410826 L9.79078125,70.7410826 L9.79078125,22.5728803 C9.79078125,21.7041785 9.09125,21 8.22828125,21 C7.3653125,21 6.66578125,21.7041785 6.66578125,22.5728803 L6.66578125,70.7412399 L1.5625,70.7412399 C0.69953125,70.7412399 0,71.4454184 0,72.3141202 C0,73.182822 0.69953125,73.8870005 1.5625,73.8870005 L6.66578125,73.8870005 L6.66578125,78.4271197 C6.66578125,79.2958215 7.3653125,80 8.22828125,80 C9.09125,80 9.79078125,79.2958215 9.79078125,78.4271197 L9.79078125,73.8868433 L78.4375,73.8868433 C79.3004688,73.8868433 80,73.1826647 80,72.3139629 C80,71.4452611 79.3004688,70.7410826 78.4375,70.7410826 Z M19.1670313,70.7410826 L19.1670313,32.1665067 L27.2934375,32.1665067 L27.2934375,70.7410826 L19.1670313,70.7410826 Z M38.33625,70.7410826 L38.33625,50.9196445 L46.4628125,50.9196445 L46.4628125,70.7410826 L38.33625,70.7410826 Z M58.0260937,70.7412399 L58.0260937,39.5135881 L66.1526562,39.5135881 L66.1526562,70.7412399 L58.0260937,70.7412399 L58.0260937,70.7412399 Z" id="Shape" fill="#636363"></path>
                <path d="M8.5,11 C9.32845,11 10,10.2910224 10,9.41640033 L10,1.58359967 C10,0.70897757 9.32845,0 8.5,0 C7.67155,0 7,0.70897757 7,1.58359967 L7,9.41640033 C7,10.2910224 7.67155,11 8.5,11 Z" id="Path" fill="#636363"></path>
                <path d="M74.5801817,0 L39.4199751,0 C36.4313042,0 34,2.43601474 34,5.43047599 L34,27.2963127 C34,30.2906168 36.4313042,32.7267887 39.4199751,32.7267887 L40.6921637,32.7267887 L40.6921637,39.4400889 C40.6921637,40.7892228 42.3636364,41.5136005 43.3431839,40.5767806 L51.5520311,32.7267887 L60.8502054,32.7267887 C61.7163664,32.7267887 62.4184852,32.0233095 62.4184852,31.1554704 C62.4184852,30.2876313 61.7163664,29.5841521 60.8502054,29.5841521 L50.9237782,29.5841521 C50.5205734,29.5841521 50.1327378,29.7398698 49.8410378,30.0187788 L43.8287234,35.7682324 L43.8287234,31.1554704 C43.8287234,30.2876313 43.1266045,29.5841521 42.2604436,29.5841521 L39.4199751,29.5841521 C38.1609601,29.5841521 37.1365597,28.5579242 37.1365597,27.2963127 L37.1365597,5.43047599 C37.1365597,4.16902167 38.1609601,3.14263657 39.4199751,3.14263657 L74.5801817,3.14263657 C75.8391968,3.14263657 76.8635972,4.16902167 76.8635972,5.43047599 L76.8635972,27.2963127 C76.8635972,28.5357686 75.857232,29.5615251 74.6203297,29.5825808 C73.7543256,29.5973512 73.0642824,30.3127724 73.0790243,31.1804544 C73.0937661,32.0481363 73.8032559,32.7398306 74.673808,32.724746 C77.6107257,32.6744638 80,30.2392347 80,27.2963127 L80,5.43047599 C80,2.43601474 77.5688526,0 74.5801817,0 L74.5801817,0 Z" id="Path" fill="#17A5DC"></path>
                <path d="M7.11219954,16.0749911 C7.4228393,16.8335085 8.32047697,17.2011151 9.0758759,16.8883864 C9.83187626,16.5755074 10.2022082,15.6801712 9.88780946,14.9248111 C9.57295967,14.1682483 8.68344134,13.7985369 7.92563668,14.1114159 C7.16978668,14.4235432 6.79719939,15.3196311 7.11219954,16.0749911 L7.11219954,16.0749911 Z" id="Path" fill="#636363"></path>
                <path d="M51.3017346,14.4776774 C50.9404488,14.4776774 50.5901635,14.603326 50.3099666,14.8335231 L42.5798023,21.1829016 C41.9065756,21.7357871 41.8047429,22.7351058 42.3525647,23.4147505 C42.6632485,23.8002632 43.1158379,24 43.5725132,24 C43.9210699,24 44.2719839,23.883553 44.5633383,23.6439957 L51.8603997,17.6504629 L62.2165255,17.6504629 C62.5921119,17.6504629 62.9552834,17.5146609 63.2401948,17.2676472 L68.857018,12.399399 L68.857018,13.7049069 C68.857018,14.5811154 69.5605745,15.2913789 70.428509,15.2913789 C71.2964435,15.2913789 72,14.5811154 72,13.7049069 L72,8.58647206 C72,7.71026354 71.2964435,7 70.428509,7 L65.0723961,7 C64.2044616,7 63.5009051,7.71026354 63.5009051,8.58647206 C63.5009051,9.46268058 64.2044616,10.1729441 65.0723961,10.1729441 L66.6011426,10.1729441 L61.6344452,14.4776774 L51.3017346,14.4776774 Z" id="Path" fill="#17A5DC"></path>
                <path d="M68.8877928,29.9125136 C68.3716429,28.6654265 66.5416023,28.7044453 66.086008,29.9813257 C65.8700815,30.5865697 66.0706813,31.2889069 66.5760123,31.6831775 C67.0654156,32.0650469 67.7491075,32.105578 68.278781,31.7837491 C68.9047724,31.4035433 69.1692334,30.5921654 68.8877928,29.9125136 L68.8877928,29.9125136 Z" id="Path" fill="#17A5DC"></path>
            </g>
        </g>
    </g>
</svg>