<?xml version="1.0" encoding="UTF-8"?>
<svg width="114px" height="80px" viewBox="0 0 114 80" version="1.1" xmlns="http://www.w3.org/2000/svg" xmlns:xlink="http://www.w3.org/1999/xlink">
    <!-- Generator: sketchtool 64 (101010) - https://sketch.com -->
    <title>93F2B418-1CCE-4BBE-8C8D-24AA25875CC4</title>
    <desc>Created with sketchtool.</desc>
    <g id="Designs" stroke="none" stroke-width="1" fill="none" fill-rule="evenodd">
        <g id="Ailstair-LP-1440" transform="translate(-130.000000, -1072.000000)" fill-rule="nonzero">
            <g id="trading" transform="translate(130.000000, 1072.000000)">
                <path d="M27.5110736,40.7824103 L50.9601732,27.6751208 L59.7922636,33.1856133 C60.8389969,33.838918 62.1645912,33.8781723 63.2514804,33.2878471 L83.6384615,22.2086277 L83.1110793,23.7458025 C82.8201714,24.5938692 83.2953508,25.5092291 84.1723133,25.7904801 C85.0474912,26.0706527 85.9956191,25.6144826 86.2871963,24.7644747 L87.8733585,20.1406562 C88.3371604,18.7885377 87.4825067,17.3410871 86.0364444,17.0451696 L81.1070715,16.0355561 C80.2035614,15.8500684 79.3149982,16.4086882 79.1235879,17.2828526 C78.9319546,18.1568013 79.5095318,19.0154365 80.4137112,19.2004927 L81.8151558,19.4875672 L61.6066458,30.467141 L52.7747785,24.9566485 C51.7128753,24.2940694 50.3736725,24.262364 49.2798675,24.8740418 L25.8358989,37.9813313 C25.035902,38.4286585 24.762395,39.4182134 25.2250814,40.1914381 C25.6884371,40.9666038 26.7126384,41.2290904 27.5110736,40.7824103 L27.5110736,40.7824103 Z" id="Path" fill="#17A5DC"></path>
                <path d="M98,55.8344326 L98,11.1655674 C98,9.41999758 96.5757355,8 94.8249204,8 L31.0746007,8 C30.1588441,8 29.4164225,8.74019743 29.4164225,9.65321047 C29.4164225,10.5662235 30.1588441,11.3064209 31.0746007,11.3064209 L94.6836436,11.3064209 L94.6836436,55.6935791 L87.4970992,55.6935791 L87.4970992,48.3348086 C87.4970992,47.4217956 86.7546775,46.6815981 85.838921,46.6815981 C84.9231644,46.6815981 84.1807428,47.4217956 84.1807428,48.3348086 L84.1807428,55.6935791 L80.6647417,55.6935791 L80.6647417,34.7172038 L84.1807428,32.7467973 L84.1807428,40.604176 C84.1807428,41.5171891 84.9231644,42.2573865 85.838921,42.2573865 C86.7546775,42.2573865 87.4970992,41.5171891 87.4970992,40.604176 L87.4970992,32.3312904 C87.4970992,29.9896831 84.9691512,28.5123742 82.9187586,29.6608044 L78.9152531,31.9045417 C77.9486458,32.4463539 77.3483852,33.4695809 77.3483852,34.5750277 L77.3483852,55.6935791 L70.2151237,55.6935791 L70.2151237,42.0164586 C70.2151237,39.6748513 67.6873968,38.1975424 65.6370041,39.3459726 L61.6334987,41.5897099 C60.6668913,42.1315221 60.0666308,43.1547491 60.0666308,44.2601959 L60.0666308,55.6937995 L52.9333692,55.6937995 L52.9333692,39.1572862 C52.9333692,36.7982651 50.3718155,35.3229401 48.3214229,36.5059775 L44.3179174,38.816284 C43.3723136,39.3622843 42.7848763,40.3780168 42.7848763,41.4673723 L42.7848763,55.6935791 L35.6516148,55.6935791 L35.6516148,49.1208551 C35.6516148,46.7627157 33.0920509,45.2873907 31.0412161,46.4686646 L27.0377106,48.7761056 C26.0912224,49.3218855 25.5031219,50.3380588 25.5031219,51.4280756 L25.5031219,55.6935791 L18.3163564,55.6935791 L18.3163564,11.3064209 L23.3364357,11.3064209 C24.2521923,11.3064209 24.9946139,10.5662235 24.9946139,9.65321047 C24.9946139,8.74019743 24.2521923,8 23.3364357,8 L18.1750796,8 C16.4242645,8 15,9.41999758 15,11.1655674 L15,55.8344326 C15,57.5800024 16.4242645,59 18.1750796,59 L94.8246993,59 C96.5757355,59 98,57.5800024 98,55.8344326 L98,55.8344326 Z M63.3829872,44.4021516 L66.8987672,42.4319655 L66.8987672,55.6937995 L63.3829872,55.6937995 L63.3829872,44.4021516 Z M46.1012328,41.6075646 L49.6170128,39.5785243 L49.6170128,55.6935791 L46.1012328,55.6935791 L46.1012328,41.6075646 Z M28.8194783,51.5682679 L32.3352583,49.5420931 L32.3352583,55.6935791 L28.8194783,55.6935791 L28.8194783,51.5682679 Z" id="Shape" fill="#17A5DC"></path>
                <path d="M109.563574,63.3883067 L106.63275,63.3883067 L106.63275,7.40446436 C106.63275,3.32149873 103.286895,0 99.1739883,0 L14.8260117,0 C10.7133281,0 7.36725,3.32149873 7.36725,7.40446436 L7.36725,63.3883067 L4.43642578,63.3883067 C1.99010156,63.3883067 0,65.3639209 0,67.7924367 C0,74.5236273 5.51653125,80 12.297082,80 L101.702918,80 C108.483469,80 114,74.5236273 114,67.7924367 C114,65.3639209 112.009898,63.3883067 109.563574,63.3883067 L109.563574,63.3883067 Z M10.7070938,7.40424333 C10.7070938,5.1496824 12.5546953,3.31530974 14.8260117,3.31530974 L99.1739883,3.31530974 C101.445082,3.31530974 103.292906,5.1496824 103.292906,7.40424333 L103.292906,63.3880856 L10.7070938,63.3880856 L10.7070938,7.40424333 Z M40.9019531,66.7038375 L73.0980469,66.7038375 L73.0980469,68.3702232 C73.0980469,69.2890673 72.3450234,70.036609 71.4194414,70.036609 L42.5805586,70.036609 C41.6549766,70.036609 40.9019531,69.2890673 40.9019531,68.3702232 L40.9019531,66.7038375 Z M101.702918,76.6844692 L12.297082,76.6844692 C7.35812109,76.6844692 3.33984375,72.6954436 3.33984375,67.7924367 C3.33984375,67.1921046 3.83169141,66.7038375 4.43642578,66.7038375 L37.5621094,66.7038375 L37.5621094,68.3702232 C37.5621094,71.117251 39.8133867,73.3521398 42.5805586,73.3521398 L71.4194414,73.3521398 C74.1866133,73.3521398 76.4378906,71.117251 76.4378906,68.3702232 L76.4378906,66.7038375 L109.563574,66.7038375 C110.168309,66.7038375 110.660156,67.1921046 110.660156,67.7924367 C110.660156,72.6954436 106.641879,76.6844692 101.702918,76.6844692 Z" id="Shape" fill="#636363"></path>
            </g>
        </g>
    </g>
</svg>